<svg xmlns="http://www.w3.org/2000/svg" xmlns:xlink="http://www.w3.org/1999/xlink" x="0" y="0" width="662" height="302" style="
        width:662px;
        height:302px;
        background: transparent;
        fill: none;
">
        
        
        <svg xmlns="http://www.w3.org/2000/svg" class="role-diagram-draw-area"><g class="shapes-region" style="stroke: black; fill: none;"><g class="composite-shape"><path class="real" d=" M59,131.5 C59,81.24 103.55,40.5 158.5,40.5 C213.45,40.5 258,81.24 258,131.5 C258,181.76 213.45,222.5 158.5,222.5 C103.55,222.5 59,181.76 59,131.5 Z" style="stroke-width: 1; stroke: rgb(0, 0, 0); fill: none; fill-opacity: 1;"/></g><g class="composite-shape"><path class="real" d=" M337,135.01 C337,131.27 340.03,128.23 343.78,128.23 L389.72,128.23 C393.47,128.23 396.5,131.27 396.5,135.01 L396.5,155.34 C396.5,159.08 393.47,162.11 389.72,162.11 L343.78,162.11 C340.03,162.11 337,159.08 337,155.34 Z" style="stroke-width: 1; stroke: rgb(0, 0, 0); fill: none; fill-opacity: 1;"/></g><g class="composite-shape"><path class="real" d=" M416.9,58.78 C416.9,55.03 419.93,52 423.68,52 L469.62,52 C473.37,52 476.4,55.03 476.4,58.78 L476.4,79.11 C476.4,82.85 473.37,85.88 469.62,85.88 L423.68,85.88 C419.93,85.88 416.9,82.85 416.9,79.11 Z" style="stroke-width: 1; stroke: rgb(0, 0, 0); fill: none; fill-opacity: 1;"/></g><g class="composite-shape"><path class="real" d=" M464.5,137.55 C464.5,133.81 467.53,130.77 471.28,130.77 L517.22,130.77 C520.97,130.77 524,133.81 524,137.55 L524,157.88 C524,161.62 520.97,164.66 517.22,164.66 L471.28,164.66 C467.53,164.66 464.5,161.62 464.5,157.88 Z" style="stroke-width: 1; stroke: rgb(0, 0, 0); fill: none; fill-opacity: 1;"/></g><g class="composite-shape"><path class="real" d=" M433.05,210.39 C433.05,206.65 436.08,203.62 439.83,203.62 L485.77,203.62 C489.52,203.62 492.55,206.65 492.55,210.39 L492.55,230.72 C492.55,234.47 489.52,237.5 485.77,237.5 L439.83,237.5 C436.08,237.5 433.05,234.47 433.05,230.72 Z" style="stroke-width: 1; stroke: rgb(0, 0, 0); fill: none; fill-opacity: 1;"/></g><g class="arrow-line"><path class="connection real" stroke-dasharray="" d="  M410.97,92.21 L395.03,118.79" style="stroke: rgb(0, 0, 0); stroke-width: 1; fill: none; fill-opacity: 1;"/><g stroke="#000" transform="matrix(0.5144395337815056,-0.8575266561936528,0.8575266561936528,0.5144395337815056,394,120.5)" style="stroke: rgb(0, 0, 0); stroke-width: 1;"><path d=" M10.93,-3.29 Q4.96,-0.45 0,0 Q4.96,0.45 10.93,3.29"/></g><g stroke="#000" transform="matrix(-0.5144395337815061,0.8575266561936524,-0.8575266561936524,-0.5144395337815061,411.99999999999994,90.5)" style="stroke: rgb(0, 0, 0); stroke-width: 1;"><path d=" M10.93,-3.29 Q4.96,-0.45 0,0 Q4.96,0.45 10.93,3.29"/></g></g><g class="arrow-line"><path class="connection real" stroke-dasharray="" d="  M452,148.42 L406,146.58" style="stroke: rgb(0, 0, 0); stroke-width: 1; fill: none; fill-opacity: 1;"/><g stroke="#000" transform="matrix(0.9992013842149537,0.039957399601579804,-0.039957399601579804,0.9992013842149537,404,146.5)" style="stroke: rgb(0, 0, 0); stroke-width: 1;"><path d=" M10.93,-3.29 Q4.96,-0.45 0,0 Q4.96,0.45 10.93,3.29"/></g><g stroke="#000" transform="matrix(-0.9992013842149537,-0.03995739960158081,0.03995739960158081,-0.9992013842149537,453.99999999999994,148.50000000000003)" style="stroke: rgb(0, 0, 0); stroke-width: 1;"><path d=" M10.93,-3.29 Q4.96,-0.45 0,0 Q4.96,0.45 10.93,3.29"/></g></g><g class="arrow-line"><path class="connection real" stroke-dasharray="" d="  M420.61,209.07 L387.39,174.93" style="stroke: rgb(0, 0, 0); stroke-width: 1; fill: none; fill-opacity: 1;"/><g stroke="#000" transform="matrix(0.6974153093866756,0.7166672074492368,-0.7166672074492368,0.6974153093866756,386,173.5)" style="stroke: rgb(0, 0, 0); stroke-width: 1;"><path d=" M10.93,-3.29 Q4.96,-0.45 0,0 Q4.96,0.45 10.93,3.29"/></g><g stroke="#000" transform="matrix(-0.6974153093866755,-0.716667207449237,0.716667207449237,-0.6974153093866755,422,210.5)" style="stroke: rgb(0, 0, 0); stroke-width: 1;"><path d=" M10.93,-3.29 Q4.96,-0.45 0,0 Q4.96,0.45 10.93,3.29"/></g></g><g class="composite-shape"><path class="real" d=" M70,119.3 C70,116.37 72.37,114 75.3,114 L141.7,114 C144.63,114 147,116.37 147,119.3 L147,135.2 C147,138.13 144.63,140.5 141.7,140.5 L75.3,140.5 C72.37,140.5 70,138.13 70,135.2 Z" style="stroke-width: 1; stroke: rgb(0, 0, 0); fill: none; fill-opacity: 1;"/></g><g class="arrow-line"><path class="connection real" stroke-dasharray="6 6" d="  M158.5,131.5 L327.01,144.35" style="stroke: rgb(0, 0, 0); stroke-width: 1; fill: none; fill-opacity: 1;"/><g stroke="#000" transform="matrix(-0.9971060692324596,-0.07602293535370373,0.07602293535370373,-0.9971060692324596,329,144.50000000000003)" style="stroke: rgb(0, 0, 0); stroke-width: 1;"><path d=" M10.93,-3.29 Q4.96,-0.45 0,0 Q4.96,0.45 10.93,3.29"/></g></g><g class="composite-shape"><path class="real" d=" M160.9,64.78 C160.9,61.03 163.93,58 167.68,58 L213.62,58 C217.37,58 220.4,61.03 220.4,64.78 L220.4,85.11 C220.4,88.85 217.37,91.88 213.62,91.88 L167.68,91.88 C163.93,91.88 160.9,88.85 160.9,85.11 Z" style="stroke-width: 1; stroke: rgb(0, 0, 0); fill: none; fill-opacity: 1;"/></g><g class="composite-shape"><path class="real" d=" M147.9,182.78 C147.9,179.03 150.93,176 154.68,176 L200.62,176 C204.37,176 207.4,179.03 207.4,182.78 L207.4,203.11 C207.4,206.85 204.37,209.88 200.62,209.88 L154.68,209.88 C150.93,209.88 147.9,206.85 147.9,203.11 Z" style="stroke-width: 1; stroke: rgb(0, 0, 0); fill: none; fill-opacity: 1;"/></g><g class="arrow-line"><path class="connection real" stroke-dasharray="" d="  M219.92,191.93 L328.08,160.07" style="stroke: rgb(0, 0, 0); stroke-width: 1; fill: none; fill-opacity: 1;"/><g stroke="#000" transform="matrix(-0.9592153603365737,0.2826763033831754,-0.2826763033831754,-0.9592153603365737,329.99999999999994,159.5)" style="stroke: rgb(0, 0, 0); stroke-width: 1;"><path d=" M10.93,-3.29 Q4.96,-0.45 0,0 Q4.96,0.45 10.93,3.29"/></g><g stroke="#000" transform="matrix(0.9592153603365743,-0.28267630338317357,0.28267630338317357,0.9592153603365743,218,192.5)" style="stroke: rgb(0, 0, 0); stroke-width: 1;"><path d=" M10.93,-3.29 Q4.96,-0.45 0,0 Q4.96,0.45 10.93,3.29"/></g></g><g class="arrow-line"><path class="connection real" stroke-dasharray="" d="  M228.83,80.3 L330.17,124.7" style="stroke: rgb(0, 0, 0); stroke-width: 1; fill: none; fill-opacity: 1;"/><g stroke="#000" transform="matrix(-0.9159429826603033,-0.40130842567201036,0.40130842567201036,-0.9159429826603033,332,125.5)" style="stroke: rgb(0, 0, 0); stroke-width: 1;"><path d=" M10.93,-3.29 Q4.96,-0.45 0,0 Q4.96,0.45 10.93,3.29"/></g><g stroke="#000" transform="matrix(0.915942982660303,0.4013084256720108,-0.4013084256720108,0.915942982660303,227,79.5)" style="stroke: rgb(0, 0, 0); stroke-width: 1;"><path d=" M10.93,-3.29 Q4.96,-0.45 0,0 Q4.96,0.45 10.93,3.29"/></g></g><g/></g><g/><g/><g/></svg>
        <svg xmlns="http://www.w3.org/2000/svg" xmlns:xlink="http://www.w3.org/1999/xlink" width="660" height="300" style="width:660px;height:300px;font-family:Asana-Math, Asana;background:transparent;"><g><g><g><text x="343" y="137" style="white-space:pre;stroke:none;fill:rgb(0,0,0);fill-opacity:1;font-size:15px;font-family:Arial, Helvetica, sans-serif;font-weight:400;font-style:normal;dominant-baseline:text-before-edge;text-decoration:none solid rgb(0, 0, 0);">Acceso</text></g></g></g><g><g><g><text x="445.046875" y="213.390625" style="white-space:pre;stroke:none;fill:rgb(0,0,0);fill-opacity:1;font-size:15px;font-family:Arial, Helvetica, sans-serif;font-weight:400;font-style:normal;dominant-baseline:text-before-edge;text-decoration:none solid rgb(0, 0, 0);">Peer</text></g></g></g><g><g><g><text x="478.046875" y="139.390625" style="white-space:pre;stroke:none;fill:rgb(0,0,0);fill-opacity:1;font-size:15px;font-family:Arial, Helvetica, sans-serif;font-weight:400;font-style:normal;dominant-baseline:text-before-edge;text-decoration:none solid rgb(0, 0, 0);">Peer</text></g></g></g><g><g><g><text x="430.046875" y="62.390625" style="white-space:pre;stroke:none;fill:rgb(0,0,0);fill-opacity:1;font-size:15px;font-family:Arial, Helvetica, sans-serif;font-weight:400;font-style:normal;dominant-baseline:text-before-edge;text-decoration:none solid rgb(0, 0, 0);">Peer</text></g></g></g><g><g><g><text x="78.296875" y="117" style="white-space:pre;stroke:none;fill:rgb(0,0,0);fill-opacity:1;font-size:15px;font-family:Arial, Helvetica, sans-serif;font-weight:400;font-style:normal;dominant-baseline:text-before-edge;text-decoration:none solid rgb(0, 0, 0);">Atacante</text></g></g></g><g transform="matrix(0.9975396398824137,0.07010468503077771,-0.07010468503077771,0.9975396398824137,10.463526237351772,-14.23799560760304)"><g><g><text x="162.03125" y="134.953125" style="white-space:pre;stroke:none;fill:rgb(0,0,0);fill-opacity:1;font-size:12px;font-family:Arial, Helvetica, sans-serif;font-weight:400;font-style:normal;dominant-baseline:text-before-edge;text-decoration:none solid rgb(0, 0, 0);">Rango de ataque</text></g></g></g><g><g><g><text x="174.046875" y="68.390625" style="white-space:pre;stroke:none;fill:rgb(0,0,0);fill-opacity:1;font-size:15px;font-family:Arial, Helvetica, sans-serif;font-weight:400;font-style:normal;dominant-baseline:text-before-edge;text-decoration:none solid rgb(0, 0, 0);">Peer</text></g></g></g><g><g><g><text x="161.046875" y="186.390625" style="white-space:pre;stroke:none;fill:rgb(0,0,0);fill-opacity:1;font-size:15px;font-family:Arial, Helvetica, sans-serif;font-weight:400;font-style:normal;dominant-baseline:text-before-edge;text-decoration:none solid rgb(0, 0, 0);">Peer</text></g></g></g></svg>
</svg>
