<svg xmlns="http://www.w3.org/2000/svg" xmlns:xlink="http://www.w3.org/1999/xlink" x="0" y="0" width="662" height="302" style="
        width:662px;
        height:302px;
        background: transparent;
        fill: none;
">
        
        
        <svg xmlns="http://www.w3.org/2000/svg" class="role-diagram-draw-area"><g class="shapes-region" style="stroke: black; fill: none;"><g class="composite-shape"><path class="real" d=" M234,19 C234,14.58 237.58,11 242,11 L296,11 C300.42,11 304,14.58 304,19 L304,43 C304,47.42 300.42,51 296,51 L242,51 C237.58,51 234,47.42 234,43 Z" style="stroke-width: 1; stroke: rgb(0, 0, 0); fill: none; fill-opacity: 1;"/></g><g class="composite-shape"><path class="real" d=" M116,20 C116,15.58 119.58,12 124,12 L188,12 C192.42,12 196,15.58 196,20 L196,44 C196,48.42 192.42,52 188,52 L124,52 C119.58,52 116,48.42 116,44 Z" style="stroke-width: 1; stroke: rgb(0, 0, 0); fill: none; fill-opacity: 1;"/></g><g class="arrow-line"><path class="connection real" stroke-dasharray="6 6" d="  M271,52 L271.5,286" style="stroke: rgb(0, 0, 0); stroke-opacity: 1; stroke-width: 1; fill: none; fill-opacity: 1;"/></g><g class="arrow-line"><path class="connection real" stroke-dasharray="6 6" d="  M156,54 L156.5,288" style="stroke: rgb(0, 0, 0); stroke-width: 1; fill: none; fill-opacity: 1;"/></g><g class="arrow-line"><path class="connection real" stroke-dasharray="6 6" d="  M389,52 L389.25,286" style="stroke: rgb(0, 0, 0); stroke-width: 1; fill: none; fill-opacity: 1;"/></g><g class="composite-shape"><path class="real" d=" M354,18 C354,13.58 357.58,10 362,10 L416,10 C420.42,10 424,13.58 424,18 L424,42 C424,46.42 420.42,50 416,50 L362,50 C357.58,50 354,46.42 354,42 Z" style="stroke-width: 1; stroke: rgb(0, 0, 0); fill: none; fill-opacity: 1;"/></g><g class="arrow-line"><path class="connection real" stroke-dasharray="" d="  M158.8,228.8 L387,229.49" style="stroke: rgb(0, 0, 0); stroke-width: 1; fill: none; fill-opacity: 1;"/><g stroke="none" fill="#000" transform="matrix(-0.9999955982815133,-0.0029670553750015564,0.0029670553750015564,-0.9999955982815133,389.99999999999994,229.5)" style="stroke: none; fill: rgb(0, 0, 0); stroke-width: 1;"><path d=" M8.93,-4.29 L0,0 L8.93,4.29 Z"/></g></g><g class="arrow-line"><path class="connection real" stroke-dasharray="6 6" d="  M512,51.5 L512.5,285.5" style="stroke: rgb(0, 0, 0); stroke-width: 1; fill: none; fill-opacity: 1;"/></g><g class="composite-shape"><path class="real" d=" M477,17.5 C477,13.08 480.58,9.5 485,9.5 L539,9.5 C543.42,9.5 547,13.08 547,17.5 L547,41.5 C547,45.92 543.42,49.5 539,49.5 L485,49.5 C480.58,49.5 477,45.92 477,41.5 Z" style="stroke-width: 1; stroke: rgb(0, 0, 0); fill: none; fill-opacity: 1;"/></g><g class="arrow-line"><path class="connection real" stroke-dasharray="" d="  M159.2,177.77 L271.4,176.6" style="stroke: rgb(0, 0, 0); stroke-width: 1; fill: none; fill-opacity: 1;"/><g stroke="none" fill="#000" transform="matrix(0.9999451693655121,-0.010471784116247163,0.010471784116247163,0.9999451693655121,156.20000000000002,177.8)" style="stroke: none; fill: rgb(0, 0, 0); stroke-width: 1;"><path d=" M8.93,-4.29 L0,0 L8.93,4.29 Z"/></g></g><g class="arrow-line"><path class="connection real" stroke-dasharray="" d="  M156.5,154 L272,153.51" style="stroke: rgb(0, 0, 0); stroke-width: 1; fill: none; fill-opacity: 1;"/><g stroke="none" fill="#000" transform="matrix(-0.9999912270311376,0.004188777955403988,-0.004188777955403988,-0.9999912270311376,274.99999999999994,153.50000000000003)" style="stroke: none; fill: rgb(0, 0, 0); stroke-width: 1;"><path d=" M8.93,-4.29 L0,0 L8.93,4.29 Z"/></g></g><g class="arrow-line"><path class="connection real" stroke-dasharray="6 6" d="  M634,51 L634.5,285" style="stroke: rgb(0, 0, 0); stroke-width: 1; fill: none; fill-opacity: 1;"/></g><g class="composite-shape"><path class="real" d=" M599,17 C599,12.58 602.58,9 607,9 L661,9 C665.42,9 669,12.58 669,17 L669,41 C669,45.42 665.42,49 661,49 L607,49 C602.58,49 599,45.42 599,41 Z" style="stroke-width: 1; stroke: rgb(0, 0, 0); fill: none; fill-opacity: 1;"/></g><g class="arrow-line"><path class="connection real" stroke-dasharray="" d="  M275.32,83.35 L386,83.5" style="stroke: rgb(0, 0, 0); stroke-width: 1; fill: none; fill-opacity: 1;"/><g stroke="none" fill="#000" transform="matrix(0.9999990252244151,0.0013962629479142763,-0.0013962629479142763,0.9999990252244151,272.3183313397129,83.35027662517288)" style="stroke: none; fill: rgb(0, 0, 0); stroke-width: 1;"><path d=" M8.93,-4.29 L0,0 L8.93,4.29 Z"/></g></g><g class="arrow-line"><path class="connection real" stroke-dasharray="1.125 3.35" d="  M276.32,112.34 L515,111.5" style="stroke: rgb(0, 0, 0); stroke-width: 1; fill: none; fill-opacity: 1;"/><g stroke="none" fill="#000" transform="matrix(0.9999939076577904,-0.00349065141522376,0.00349065141522376,0.9999939076577904,273.3183313397129,112.35027662517288)" style="stroke: none; fill: rgb(0, 0, 0); stroke-width: 1;"><path d=" M8.93,-4.29 L0,0 L8.93,4.29 Z"/></g></g><g class="arrow-line"><path class="connection real" stroke-dasharray="1.125 3.35" d="  M156.8,204.8 L634,206.49" style="stroke: rgb(0, 0, 0); stroke-width: 1; fill: none; fill-opacity: 1;"/><g stroke="none" fill="#000" transform="matrix(-0.9999939076577904,-0.0034906514152233926,0.0034906514152233926,-0.9999939076577904,636.9999999999999,206.49999999999997)" style="stroke: none; fill: rgb(0, 0, 0); stroke-width: 1;"><path d=" M8.93,-4.29 L0,0 L8.93,4.29 Z"/></g></g><g class="composite-shape"><path class="real" d=" M268,155.5 L276,155.5 L276,179 L268,179 Z" style="stroke-width: 1; stroke: rgb(155, 155, 155); stroke-opacity: 1; fill: rgb(155, 155, 155); fill-opacity: 1;"/></g><g/></g><g/><g/><g/></svg>
        <svg xmlns="http://www.w3.org/2000/svg" xmlns:xlink="http://www.w3.org/1999/xlink" width="660" height="300" style="width:660px;height:300px;font-family:Asana-Math, Asana;background:transparent;"><g><g><g><text x="240.421875" y="12" style="white-space:pre;stroke:none;fill:rgb(0,0,0);fill-opacity:1;font-size:15px;font-family:Arial, Helvetica, sans-serif;font-weight:400;font-style:normal;dominant-baseline:text-before-edge;text-decoration:none solid rgb(0, 0, 0);">Sistema</text></g></g><g><g><text x="235" y="33" style="white-space:pre;stroke:none;fill:rgb(0,0,0);fill-opacity:1;font-size:15px;font-family:Arial, Helvetica, sans-serif;font-weight:400;font-style:normal;dominant-baseline:text-before-edge;text-decoration:none solid rgb(0, 0, 0);"> de índice</text></g></g></g><g><g><g><text x="128.890625" y="22.390625" style="white-space:pre;stroke:none;fill:rgb(0,0,0);fill-opacity:1;font-size:15px;font-family:Arial, Helvetica, sans-serif;font-weight:400;font-style:normal;dominant-baseline:text-before-edge;text-decoration:none solid rgb(0, 0, 0);">Usuario</text></g></g></g><g><g><g><text x="357" y="20" style="white-space:pre;stroke:none;fill:rgb(0,0,0);fill-opacity:1;font-size:13.5px;font-family:Arial, Helvetica, sans-serif;font-weight:400;font-style:normal;dominant-baseline:text-before-edge;text-decoration:none solid rgb(0, 0, 0);">Proveedor</text></g></g></g><g><g><g><text x="480" y="20.5" style="white-space:pre;stroke:none;fill:rgb(0,0,0);fill-opacity:1;font-size:15px;font-family:Arial, Helvetica, sans-serif;font-weight:400;font-style:normal;dominant-baseline:text-before-edge;text-decoration:none solid rgb(0, 0, 0);">Atacante</text></g></g></g><g><g><g><text x="166.328125" y="162.828125" style="white-space:pre;stroke:none;fill:rgb(0,0,0);fill-opacity:1;font-size:10.5px;font-family:Arial, Helvetica, sans-serif;font-weight:400;font-style:normal;dominant-baseline:text-before-edge;text-decoration:none solid rgb(0, 0, 0);">4: Envio de la infor-</text></g></g><g><g><text x="166.328125" y="176.828125" style="white-space:pre;stroke:none;fill:rgb(0,0,0);fill-opacity:1;font-size:10.5px;font-family:Arial, Helvetica, sans-serif;font-weight:400;font-style:normal;dominant-baseline:text-before-edge;text-decoration:none solid rgb(0, 0, 0);">mación del proveedor</text></g></g></g><g><g><g><text x="196.796875" y="214.796875" style="white-space:pre;stroke:none;fill:rgb(0,0,0);fill-opacity:1;font-size:10.5px;font-family:Arial, Helvetica, sans-serif;font-weight:400;font-style:normal;dominant-baseline:text-before-edge;text-decoration:none solid rgb(0, 0, 0);">5: Conectando para la descarga</text></g></g></g><g><g><g><text x="598" y="12" style="white-space:pre;stroke:none;fill:rgb(0,0,0);fill-opacity:1;font-size:15px;font-family:Arial, Helvetica, sans-serif;font-weight:400;font-style:normal;dominant-baseline:text-before-edge;text-decoration:none solid rgb(0, 0, 0);">Proveedor</text></g></g><g><g><text x="611.765625" y="33" style="white-space:pre;stroke:none;fill:rgb(0,0,0);fill-opacity:1;font-size:15px;font-family:Arial, Helvetica, sans-serif;font-weight:400;font-style:normal;dominant-baseline:text-before-edge;text-decoration:none solid rgb(0, 0, 0);">ficticio</text></g></g></g><g><g><g><text x="275.8125" y="192.171875" style="white-space:pre;stroke:none;fill:rgb(0,0,0);fill-opacity:1;font-size:10.5px;font-family:Arial, Helvetica, sans-serif;font-weight:400;font-style:normal;dominant-baseline:text-before-edge;text-decoration:none solid rgb(0, 0, 0);">5: Intectando conectar con el proveedor ficticio para la descarga</text></g></g></g><g><g><g><text x="289.5" y="70" style="white-space:pre;stroke:none;fill:rgb(0,0,0);fill-opacity:1;font-size:10.5px;font-family:Arial, Helvetica, sans-serif;font-weight:400;font-style:normal;dominant-baseline:text-before-edge;text-decoration:none solid rgb(0, 0, 0);">1: publicación del </text></g></g><g><g><text x="289.5" y="84" style="white-space:pre;stroke:none;fill:rgb(0,0,0);fill-opacity:1;font-size:10.5px;font-family:Arial, Helvetica, sans-serif;font-weight:400;font-style:normal;dominant-baseline:text-before-edge;text-decoration:none solid rgb(0, 0, 0);">índice de un archivo</text></g></g></g><g><g><g><text x="290.5" y="113" style="white-space:pre;stroke:none;fill:rgb(0,0,0);fill-opacity:1;font-size:10.5px;font-family:Arial, Helvetica, sans-serif;font-weight:400;font-style:normal;dominant-baseline:text-before-edge;text-decoration:none solid rgb(0, 0, 0);">2: publicación de índice ficticio de un archivo</text></g></g></g><g><g><g><text x="162.796875" y="137.796875" style="white-space:pre;stroke:none;fill:rgb(0,0,0);fill-opacity:1;font-size:10.5px;font-family:Arial, Helvetica, sans-serif;font-weight:400;font-style:normal;dominant-baseline:text-before-edge;text-decoration:none solid rgb(0, 0, 0);">3: solicitud de archivo</text></g></g></g></svg>
</svg>
